<?xml version="1.0" encoding="utf-8"?>
<!-- Generator: Adobe Illustrator 15.0.2, SVG Export Plug-In . SVG Version: 6.00 Build 0)  -->
<!DOCTYPE svg PUBLIC "-//W3C//DTD SVG 1.1//EN" "http://www.w3.org/Graphics/SVG/1.1/DTD/svg11.dtd">
<svg version="1.1" id="Layer_1" xmlns="http://www.w3.org/2000/svg" xmlns:xlink="http://www.w3.org/1999/xlink" x="0px" y="0px"
	 width="163.06px" height="41.349px" viewBox="0 0 163.06 41.349" enable-background="new 0 0 163.06 41.349" xml:space="preserve">
<g>
	<defs>
		<rect id="SVGID_1_" y="0" width="163.06" height="41.349"/>
	</defs>
	<clipPath id="SVGID_2_">
		<use xlink:href="#SVGID_1_"  overflow="visible"/>
	</clipPath>
	<path clip-path="url(#SVGID_2_)" fill="#F98710" d="M70.423,7.512C69.153,2.741,65.632,0,59.474,0
		c-4.284,0-8.389,1.948-10.069,5.167h-0.124V0.664h-5.492v28.348h5.676V15.888c0-6.88,2.893-11.66,9.337-11.66
		c4.944,0.276,6.516,3.495,6.516,10.112v14.672h5.666v-6.158c-1.472-2.335-2.302-5.086-2.302-8.016
		C68.682,12.126,69.302,9.647,70.423,7.512"/>
	<path clip-path="url(#SVGID_2_)" fill="#F98710" d="M40.175,0.664l-8.449,23.457h-0.12L23.349,0.664h-6.217l10.441,26.455
		c0.361,0.94,1.081,2.39,1.081,2.998c0,0.553-1.693,7.004-6.757,7.004c-0.96,0-1.923-0.221-2.652-0.442l-0.36,4.282
		c1.027,0.166,2.052,0.388,3.864,0.388c7.477,0,9.709-6.284,11.816-11.729l7.474-19.078V0.664H40.175z"/>
	<path clip-path="url(#SVGID_2_)" fill="#F98710" d="M86.538,25.448c-7.309,0-10.249-5.554-10.249-10.61
		c0-5.389,3.56-10.611,9.889-10.611c1.601,0,3.511,0.308,5.427,0.959V0.737C89.958,0.309,87.732,0,85.938,0
		c-9.409,0-15.685,6.218-15.685,14.838c0,8.109,6.396,14.836,15.685,14.836c1.633,0,3.712-0.114,5.667-0.667v-4.644
		C90.018,25.073,88.106,25.448,86.538,25.448"/>
	<path clip-path="url(#SVGID_2_)" fill="#939598" d="M151.538,0c-4.284,0-8.389,1.948-10.068,5.167h-0.121V0.664h-5.484v5.883
		c1.475,2.329,2.289,5.158,2.289,8.291c0,2.931-0.818,5.683-2.289,8.02v6.154h5.665V15.888c0-6.881,2.905-11.661,9.349-11.661
		c4.945,0.277,6.505,3.496,6.505,10.113v14.672h5.678V12.171C163.061,4.559,159.507,0,151.538,0"/>
	<path clip-path="url(#SVGID_2_)" fill="#F98710" d="M10.861,0C4.764,0,0,2.833,0,8.719c0,7.956,13.333,7.504,13.333,12.68
		c0,3.054-3.197,4.049-5.793,4.049c-1.623,0-4.822-0.664-7.049-2.003l-0.308,4.669c2.596,1.284,5.554,1.561,8.446,1.561
		c5.484,0,10.729-2.776,10.729-8.841c0-9.05-13.321-7.391-13.321-13.166c0-2.335,2.532-3.441,5.424-3.441
		c1.236,0,4.39,0.606,5.846,1.268l-1.951-4.968C13.955,0.217,12.507,0,10.861,0"/>
	<path clip-path="url(#SVGID_2_)" fill="#939598" d="M120.818,25.448c6.624,0,9.589-5.554,9.589-10.61
		c0-5.389-3.563-10.611-9.589-10.611c-6.085,0-9.649,5.222-9.649,10.611C111.169,19.894,114.127,25.448,120.818,25.448 M120.818,0
		c9.349,0,15.613,6.218,15.613,14.838c0,8.109-6.385,14.837-15.613,14.837c-9.289,0-15.673-6.728-15.673-14.837
		C105.146,6.218,111.409,0,120.818,0"/>
	<path clip-path="url(#SVGID_2_)" fill="#939598" d="M111.275,0.937C110.228,0.374,107.954,0,106.292,0
		c-3.265,0-6.504,2.113-8.029,5.056h-0.119V0.665h-5.305v28.347h5.663V15.684c0-7.114,2.868-11.089,7.933-11.089
		c0.086,0,0.291,0.039,0.381,0.041C107.864,3.349,109.438,2.005,111.275,0.937"/>
</g>
</svg>
